<svg width="87" height="107" viewBox="0 0 87 107" fill="none" xmlns="http://www.w3.org/2000/svg">
<g clip-path="url(#clip0_10_31)">
<path d="M70.1923 45.5795C70.0904 45.2268 69.9101 44.9015 69.6646 44.6276C69.4191 44.3538 69.1148 44.1385 68.7744 43.9977C67.9478 43.6509 66.9941 43.7852 66.1124 43.7334C64.2889 43.7506 62.4678 43.9037 60.6483 44.016C57.8688 44.2461 55.1468 44.8789 52.389 45.2667C49.2602 45.6947 40.8343 46.6729 35.4145 46.708C31.7855 46.8821 28.16 47.1291 24.5266 47.1991C22.2407 47.311 19.9546 47.3967 17.6811 47.0708C19.6062 47.7345 21.5952 48.1978 23.6163 48.4534C26.1844 48.8993 28.755 49.329 31.3434 49.6437C31.8367 49.7046 32.324 49.7672 32.8089 49.83C28.9984 49.998 25.1827 50.0208 21.3749 50.2773C22.2932 50.4939 23.2186 50.6818 24.1459 50.8571C26.9843 51.3548 29.7855 52.0571 32.6435 52.4422C37.2017 52.9909 41.7792 53.4708 46.3654 53.7053C51.1602 53.9425 55.9665 53.7647 60.7303 53.1738C63.0119 52.8163 65.507 52.8961 67.5282 51.6471C68.8496 50.835 69.2086 49.2831 69.7186 47.9193C69.7632 47.8224 69.8034 47.7236 69.8541 47.6297C70.0473 47.3287 70.177 46.9917 70.2352 46.6392C70.2933 46.2868 70.2787 45.9262 70.1923 45.5795Z" fill="#2A283B"/>
<path d="M8.3008 20.4561L7.6278 90.5831C7.58368 95.1798 11.6487 99.4303 16.2634 99.6129C31.5898 100.219 46.9162 100.825 62.2425 101.431C63.3335 101.475 64.4015 101.112 65.2385 100.414C66.0754 99.7162 66.6214 98.7332 66.77 97.6566C66.9186 96.5799 66.6591 95.4868 66.0422 94.5902C65.4252 93.6936 64.495 93.0577 63.4328 92.8065C54.4767 90.6882 45.3399 88.4962 37.5382 83.6329C29.7365 78.7696 23.3669 70.6709 23.0666 61.5131C22.5776 46.6017 17.0395 31.8983 8.3008 20.4561Z" fill="#2A283B"/>
<path d="M86.7437 19.182C86.7116 15.8557 86.8065 12.5302 86.8208 9.20414C86.7707 7.30855 87.0394 5.29156 86.3119 3.49813C85.3616 1.74659 83.0511 1.71622 81.3051 1.37806C78.5193 1.02781 77.4374 0.804262 75.1726 0.627193C63.9927 -0.427319 52.7686 0.129137 41.5647 0.297442C33.0979 0.401193 24.5517 0.106372 16.1978 1.72877C8.49916 3.32154 6.74334 6.02197 5.41475 13.5121C5.24391 14.4751 5.11065 15.445 5.00764 16.4174C5.20502 15.7487 5.41086 15.0824 5.63433 14.4219C5.80492 13.902 6.0073 13.3392 6.21424 12.791C5.31292 16.3754 4.39222 19.9594 3.80879 23.6111C2.64114 30.5647 2.09965 37.6033 1.70126 44.6369C1.09848 54.9444 0.256696 65.2434 0.0152971 75.5681C-0.0718007 81.6521 0.232032 87.7324 0.411729 93.8123C0.55202 96.5501 0.581246 99.2963 0.819856 102.028C0.910197 107.552 7.26274 106.614 11.1665 106.59C15.392 106.408 19.6037 105.969 23.8335 105.866C27.1762 105.762 30.5194 105.933 33.8627 105.916C38.3322 105.938 42.7938 105.606 47.2615 105.543C52.509 105.602 57.759 105.342 63.0041 105.519C66.4875 105.709 69.9507 106.156 73.4167 106.537C75.2376 106.679 77.0629 107.122 78.8919 106.968C81.0074 106.845 82.1985 104.845 82.8747 103.064C84.0266 100.459 84.0837 97.5395 84.275 94.7408C84.4997 90.3404 84.3608 85.9275 84.7035 81.532C85.0874 75.7866 85.8969 70.0801 86.3484 64.3406C86.8112 58.1807 86.8913 52.0002 86.9666 45.8259C87.1141 36.9436 86.7235 28.0645 86.7437 19.182ZM83.7691 62.814C83.331 69.1011 82.3899 75.3417 81.9574 81.6292C81.5233 87.2895 81.8989 94.8975 81.2032 99.2731C80.7175 102.593 79.2152 104.525 78.6579 104.332C76.793 104.386 74.9414 103.962 73.0874 103.794C68.784 103.303 64.4732 102.727 60.1343 102.73C55.4122 102.775 50.6901 102.809 45.9679 102.834C42.6422 102.932 39.3188 103.111 35.9919 103.168C31.3497 103.255 26.7063 102.958 22.0663 103.188C16.3939 103.326 5.72456 104.824 3.9005 103.079C3.88314 103.051 3.86513 103.024 3.8497 102.995C3.75219 102.648 3.68344 102.293 3.64413 101.935C3.57869 100.671 3.33568 95.465 3.27717 92.7902C3.15577 86.8475 2.87889 80.9033 3.04844 74.9588C3.33281 64.167 4.10122 53.3969 4.64339 42.6168C4.90543 36.5014 4.94617 30.3776 5.30658 24.2662C5.50753 20.227 6.02339 16.2144 6.44332 12.1942C6.72452 11.4744 6.99627 10.8214 7.19105 10.3813C7.73419 9.06182 8.49041 7.83958 9.42979 6.76298C11.4614 4.91414 14.599 4.66622 16.5988 4.38924C22.5756 3.89607 28.5792 3.74465 34.5744 3.65912C46.6971 3.62062 58.8147 2.61048 70.9341 3.28374C73.6928 3.40559 76.446 3.63347 79.1898 3.94158C81.3296 4.24645 81.7623 4.13297 83.8485 4.76398C83.8571 4.76879 83.8663 4.77231 83.8748 4.77723C83.9437 4.96744 83.9937 5.16394 84.024 5.36388L84.0177 5.31742C84.1251 6.28898 84.1477 7.26743 84.1719 8.24388C84.1362 16.6926 84.1656 25.141 84.3315 33.589C84.4757 43.3308 84.3424 53.0868 83.7691 62.814Z" fill="black"/>
<path d="M30.5486 21.1911C29.8208 19.58 28.4065 18.1985 26.6777 17.7135C26.0464 17.5785 25.4021 17.5129 24.7563 17.5178C25.4901 17.6711 26.1942 17.9411 26.8416 18.3175C27.5072 18.7574 28.0744 19.3292 28.5078 19.9973C28.9412 20.6653 29.2314 21.4152 29.3603 22.2C29.5257 24.2681 29.0206 25.9554 27.7333 27.7371C25.9188 30.4752 22.6417 32.2238 20.5821 31.8259C18.0271 31.339 16.4453 28.6197 16.2607 25.6427C16.0613 23.3968 16.4722 21.1853 17.8151 19.2251C18.9893 17.6833 20.7697 16.8177 22.3521 15.7642C19.775 16.6748 16.9145 17.6597 15.5764 20.2386C13.9778 23.1093 13.4716 26.7403 14.593 29.8589C16.1872 34.211 20.5406 36.2072 24.76 34.0071C27.8426 32.4999 30.0506 29.3495 30.8765 26.0778C31.1676 24.4618 31.224 22.7224 30.5486 21.1911Z" fill="black"/>
<path d="M61.0655 17.8153C55.1488 17.6553 49.2293 18.0018 43.3722 18.851C48.4297 19.5158 53.5433 20.0705 58.6508 19.8587C62.4555 19.6652 66.1827 18.8391 69.943 18.2938C67.9205 17.8154 63.8042 17.8777 61.0655 17.8153Z" fill="black"/>
<path d="M71.1004 26.3142C64.8987 24.9628 58.5319 25.7228 52.3087 26.5045C49.2267 26.8558 46.1206 26.8788 43.0276 27.0831C46.6795 27.8427 50.3787 28.5242 54.1253 28.4104C59.507 28.3015 64.1565 27.1606 68.6116 26.7817C69.7801 26.6719 70.9519 26.5992 72.124 26.5404C71.784 26.461 71.4428 26.3843 71.1004 26.3142Z" fill="black"/>
<path d="M62.319 33.5086C55.2936 32.8687 48.3061 34.2266 41.3047 34.6285C44.9197 35.2815 48.5864 35.6093 52.2604 35.6081C57.5953 35.5554 62.8944 34.8467 68.2083 34.4538C68.4271 34.4384 68.6463 34.4245 68.8649 34.4096C66.7064 33.9591 64.5192 33.6581 62.319 33.5086Z" fill="black"/>
<path d="M66.6803 49.0635C59.1978 48.3388 51.674 48.6893 44.174 48.8675C34.2578 49.0145 24.3432 49.3264 14.4265 49.3773C23.5486 51.317 32.9022 52.3548 42.2353 52.1576C50.4503 51.8187 58.5566 50.324 66.7378 49.602C67.6123 49.512 68.4885 49.4354 69.3642 49.3613C68.472 49.2417 67.5774 49.1425 66.6803 49.0635Z" fill="black"/>
<path d="M63.838 61.7844C57.3175 60.917 50.7197 60.7084 44.1476 60.6167C34.8992 60.6209 25.7266 62.0248 16.494 62.4112C31.9869 64.8665 47.6919 62.9631 63.2272 61.9282C63.6682 61.8754 64.9853 61.9145 63.838 61.7844Z" fill="black"/>
<path d="M67.0611 80.0567C63.9524 79.3185 60.8377 78.5712 57.6666 78.1483C54.4878 77.7224 51.2808 77.5509 48.0866 77.2749C43.5229 76.9409 38.9509 76.623 34.3723 76.6625C28.5275 76.805 22.6851 77.0328 16.8386 76.8169C22.4856 78.2963 27.4676 79.0113 33.1161 79.4756C37.0898 79.8101 41.0529 80.3181 45.0429 80.4167C49.1624 80.5578 53.2809 80.3849 57.3975 80.2471C60.4037 80.1845 63.4109 80.2455 66.4174 80.2014C66.8712 80.1641 68.2391 80.2903 67.0611 80.0567Z" fill="black"/>
<path d="M25.7185 23.7271C25.6125 23.3853 25.4873 23.0497 25.3547 22.7173C25.3441 23.2973 25.3028 23.8763 25.2311 24.4519C24.9229 26.0427 24.3756 27.2828 22.8697 27.9224C21.9849 28.224 21.834 28.2986 20.8821 28.0207C20.6021 27.8645 20.2654 27.2622 20.1253 26.951C19.5675 25.2984 19.5012 23.7639 19.6013 21.9901C19.7179 21.1787 19.6553 19.9998 20.5707 19.6631C19.9335 19.6613 19.5495 20.1773 19.2811 20.6927C18.8029 21.6114 18.461 22.5943 18.2661 23.6106C17.3753 27.1967 18.66 31.748 23.2194 30.0276C25.6654 29.0522 26.5594 26.0855 25.7185 23.7271Z" fill="#2A283B"/>
</g>
<defs>
<clipPath id="clip0_10_31">
<rect width="87" height="107" fill="white"/>
</clipPath>
</defs>
</svg>
